/* XPM */
static char *_16fa1108e1d4a91e3a05ee8ac55ec5b[] = {
/* columns rows colors chars-per-pixel */
"64 64 256 2 ",
"   c #721E0D",
".  c #69260A",
"X  c #73250D",
"o  c #78270B",
"O  c #692914",
"+  c #752C14",
"@  c #7C2D14",
"#  c #7C2D1B",
"$  c #762617",
"%  c #7D3315",
"&  c #75341B",
"*  c #7D331B",
"=  c #7D3A1C",
"-  c #763716",
";  c #703313",
":  c #782C22",
">  c #7C3423",
",  c #7D3B24",
"<  c #773928",
"1  c #7D3B31",
"2  c #7B4018",
"3  c #774128",
"4  c #7D4A36",
"5  c #7F5235",
"6  c #7E5345",
"7  c #7C604B",
"8  c #832C0E",
"9  c #832C14",
"0  c #842D1A",
"q  c #8A2C17",
"w  c #843315",
"e  c #8A3315",
"r  c #83341C",
"t  c #8C351C",
"y  c #843A1C",
"u  c #8B3B1D",
"i  c #873915",
"p  c #93341C",
"a  c #9B341D",
"s  c #933B1D",
"d  c #9B3C1C",
"f  c #943615",
"g  c #923013",
"h  c #A3391B",
"j  c #B63D1E",
"k  c #852C22",
"l  c #843522",
"z  c #8C3522",
"x  c #843B23",
"c  c #8C3B23",
"v  c #8C3C2A",
"b  c #87392B",
"n  c #933523",
"m  c #933B23",
"M  c #9B3C24",
"N  c #933C2A",
"B  c #9B3C2A",
"V  c #993525",
"C  c #863B31",
"Z  c #943D31",
"A  c #922E23",
"S  c #A33D24",
"D  c #A23D2B",
"F  c #AA3D2A",
"G  c #A83B26",
"H  c #A23E32",
"J  c #B63D28",
"K  c #87411E",
"L  c #96431C",
"P  c #A6421D",
"I  c #8C4223",
"U  c #84432C",
"Y  c #8B432B",
"T  c #854427",
"R  c #944224",
"E  c #9C4224",
"W  c #94432C",
"Q  c #9C432B",
"!  c #994A2B",
"~  c #8A4533",
"^  c #854B33",
"/  c #8B4D3B",
"(  c #884836",
")  c #944433",
"_  c #944A34",
"`  c #9B4B34",
"'  c #944B3A",
"]  c #9C4738",
"[  c #8B523C",
"{  c #85543D",
"}  c #9B523C",
"|  c #96543B",
" . c #A44325",
".. c #AB4324",
"X. c #A4442B",
"o. c #AA442C",
"O. c #A44A2C",
"+. c #A94A29",
"@. c #B4452A",
"#. c #A44633",
"$. c #A44A34",
"%. c #AB4B33",
"&. c #A44C3A",
"*. c #AB4837",
"=. c #B34C34",
"-. c #B44A3A",
";. c #A4543B",
":. c #A95539",
">. c #B4533B",
",. c #B5563A",
"<. c #B1613E",
"1. c #874C43",
"2. c #994D41",
"3. c #8C5D4C",
"4. c #885646",
"5. c #945342",
"6. c #9C5544",
"7. c #935C4C",
"8. c #9C5C4B",
"9. c #995845",
"0. c #955D53",
"q. c #8D5B52",
"w. c #A54C43",
"e. c #A25443",
"r. c #AB5444",
"t. c #A45B45",
"y. c #AB5B44",
"u. c #AC5D4A",
"i. c #A8564A",
"p. c #B25C44",
"a. c #B35D4C",
"s. c #B85946",
"d. c #A95C52",
"f. c #B75B51",
"g. c #B44E42",
"h. c #89624B",
"j. c #98644B",
"k. c #8B6454",
"l. c #956554",
"z. c #9B6453",
"x. c #9B6D5B",
"c. c #996A56",
"v. c #9A725C",
"b. c #AD644C",
"n. c #A7674C",
"m. c #B4644B",
"M. c #B76449",
"N. c #AD6454",
"B. c #AC6B54",
"V. c #A56D59",
"C. c #AB6D5B",
"Z. c #A46755",
"A. c #B46453",
"S. c #B36C55",
"D. c #BB6C53",
"F. c #B36C5B",
"G. c #B96857",
"H. c #AC735C",
"J. c #A67459",
"K. c #B4725C",
"L. c #BA725C",
"P. c #B57759",
"I. c #A6714F",
"U. c #9D7462",
"Y. c #9A746A",
"T. c #9D7B6D",
"R. c #977767",
"E. c #9C7C72",
"W. c #917163",
"Q. c #A56C62",
"!. c #A37664",
"~. c #AB7463",
"^. c #A47B64",
"/. c #AB7C64",
"(. c #A47C6A",
"). c #AC7D6C",
"_. c #AA756A",
"`. c #B47462",
"'. c #BB7363",
"]. c #B37A64",
"[. c #BB7B65",
"{. c #B2756B",
"}. c #B37C6B",
"|. c #BB7C6B",
" X c #BA766A",
".X c #AD7E73",
"XX c #A47B74",
"oX c #B47D72",
"OX c #BA7D75",
"+X c #B36D62",
"@X c #C25A42",
"#X c #C46A57",
"$X c #C56E55",
"%X c #C57A69",
"&X c #C87569",
"*X c #9E857A",
"=X c #96806B",
"-X c #A4826C",
";X c #AC836C",
":X c #A88568",
">X c #B3836D",
",X c #BB836C",
"<X c #B6876A",
"1X c #A38374",
"2X c #AC8373",
"3X c #AC8A74",
"4X c #AC847B",
"5X c #AC8B7B",
"6X c #A48779",
"7X c #B48473",
"8X c #BB8473",
"9X c #B48A73",
"0X c #BB8B74",
"qX c #B4857A",
"wX c #B38B7B",
"eX c #BB8B7C",
"rX c #BB847A",
"tX c #AA927C",
"yX c #B5937D",
"uX c #B99479",
"iX c #AE906E",
"pX c #A3825F",
"aX c #C3846E",
"sX c #C58B6C",
"dX c #C48573",
"fX c #C38B74",
"gX c #CB8C7B",
"hX c #C88877",
"jX c #D58B78",
"kX c #C3937D",
"lX c #CA9478",
"zX c #D4957B",
"xX c #D28A6C",
"cX c #E2917C",
"vX c #C1835C",
"bX c #A98A83",
"nX c #B28C82",
"mX c #BD8D84",
"MX c #AD9283",
"NX c #B49483",
"BX c #BC9484",
"VX c #B89889",
"CX c #BA9A92",
"ZX c #BAA488",
"AX c #B7A294",
"SX c #C88D81",
"DX c #C29C8A",
"FX c #C89785",
"GX c #D59886",
"HX c #C59F94",
"JX c #C7A48B",
"KX c #D6A487",
"LX c #C6A695",
"PX c #DAA190",
"IX c #E3A792",
"UX c #D5A299",
/* pixels */
"l , gX'.N n t u y y y r o j.JXw.n r $ b l > R a # >X,XQ a q c p x c * ; | zXb.z w # > C 0 t E 9 Q.dX' n t m 0 r I r 0 ^ zXf.V c ",
"C C dX'.) Z N ~ x Z N B z C.SXf.I < O 1 1 : T x 1 {. X] B N v b N Z ) b 8.jXA.H = > : 1 < l b # {.hX2.N z Z v v v N v 5.GXG.B x ",
"-XR.LXyX(.).!.-XW.-X-X^.x.3XJX8X/.(.R.1XE.T./.H.T.ZXZX^.>X(.=X=X^.J.;Xv.:XJX9X!.:XR.E.XX^.^.:X!.yXJX)./././.(.R.-X/.!.R.LXyX/.^.",
"[.C.}.H.G.'.F.].VX7XB.K.L.H.].A.B.`.C.7X7XC.K.L.S.].H.B.'.+X~.BX8XZ.`.`.`.K.H.C.K.!..XrXV.K.'.H.~.].B.K.H.!.BX5XB.L.K.B.,XF.N.K.",
"-.D Q m D F D >.GXf.H #.=.X.!  .` Q z '.dX` o.:.X.X.M  .o.B w.SX#XX.#.#.*.D X.` %.c A.xX&.o.>.#.! Q M E Q ) hXhXG *.-.#.#.X.X.F ",
"u I I K m n r | JXm.B u f f u s y e   H.sXQ s K I i u K v z ( JXD.R t m M t I u p . 8.GX` p m r u e s d m x aX8X .u y m z K I s ",
"8 i r u z 0 @ _ DXa.A X q s r * * n   V.dX#.V 8 r k z r r 0 b FXD.s X q p t t % i . z.SX;.u r = r l m r x * fX}.h o + z 0 = = w ",
"W ) U ( ' ) C 5.ZXF.Z ; U ' ^ 4 C 2.C (.SXi.) T ~ ) ' ~ Y ] ' BX[.Y & 3 _ Y _ ^ W C Q.FXi.#.v ( ( ( ' b ~ , FX;X#.l , &.~ ^ ^ W ",
"nXE.bX*X5X9X5X4XAX5XqX4X6X6X6XnX3XNX6XVXVX.X7X7XbX1XbX5X4XoXnXVXNX2X2X1X6XbX*X:X5X6XBXHXwX2XwX3X*XbX5XwXnX4XMXNX6X4X4X*X*X4XbX4X",
"m.n.eX].b.M.A.A.B.m.m.y.8.P.dXA.:.b.t.S.L.A.D.m.6.aX,Xt.G.D.b.n.S.u.b.u.F.hXN.n.b.t.A.D.m.m.A.;.}.%Xb.a.M.a.S.b.b.u.n.I.dXL.u.m.",
"m W xXG.m  .S B d L M V m I.jXg.o.S V p B X.o. .n %X%XM F o.M d B M h s t.zXp.h X.m B M Q O.o.p [.aX` Q X.M  .m R M m _ jXM.D S ",
"y 3 GX[.y s m z s y y m r c.UXf.! r = & & 3 = = C 0X0XW V u y s x u s & j.IXD.O.l * @ % r y r 9 oXGX~ R m u K u z c l ^ KX%X$.z ",
"w = hXB.w f i 0 f w % p X [ zXa.p 9 0 $ + w @ @ # ,XP.0 S r o M r w e o ^ zXp.h r r + + y w @ 8 `.dXr m f 9 i r e t % - xXD.B e ",
"' 5.kX~.| ;.6.5.7.7.8.i.( x.FXN.e.6.6.2./ 5.6.} 2.kX9X' i.8.[ 9.8.5.e./ 0.FXC.;.6.5./ ( [ 5.2.' wXkX4.t.8.5.8.7.} 9.5.4.kX[.t.` ",
"8XqXLXNX9X<X;XwXVX6XqXnX1XyXDX}.3XtX6XMXMX1X5X3X8XDXZX2XoX4XnXNXVX;XuXwXnXHXSX}.mXqX5XtX6X3XeXoXDXDX7X>X7X7XCXMX3X0XwX5XJXmX7X>X",
",.r.N.e.b.:.;.n.FXi.] t.n.t.p.,.;.t.6.&X&Xu.p.a.,.a.y.t.A.w.d.SXb.| ;.y.i.d.r.:.r.2.'.aXB.t.m.r.t.u.p.r.i.d.%X}._ :.i.t.t.r.:.;.",
"E V B z c ! m w.JX} p m ! $.c c u F p P.sX+.h  .s E B u R E N DXb.m s +.O.m N x M e n.zX=.F R p E L i I ~ v hX|.g o.o.@.m m V ) ",
"- = T & ; - ; ` JXM.M i E  .w @ & r + J.uX} m = - , l & - y U ZX$Xd 8 h  .t q @ y - j.uX;.u * = i % 8 y = y fX,XL e f +.y r * & ",
"8 0 k # 9 @ o Z kXA.A o t z % * $ $ $ +XjXr.A $ z # k k % @ z SXL.n o e t * @ # $ $ Z.jXa.A $ k * & r * + l ,XOXS X 8 m + + l $ ",
"n.0.l.q.z.Z.8.+XLXoX7.7.z.7.3.l.k.0.0.mXDXQ.0.k.c.3.0.Z.n.9.Z.AX;Xz.{ l.q.k.3.l.0.q.XXHX{.0.7.x.3.l.j.z.8.0.NXBXz.h.k.k.7 k.v.7 ",
"8X2XVX5X>XaX,XqXnXrX}.8X8XwXNXoX3X0X>XfXeX}.,X9X>XyXNXOX<X<XqXNXwX>X>X0X4XMX4X>XrX2X9XkX8X,X,X,XwXVX}.8X8XdXuX9X8X0XwXoXVXwX8X;X",
"*.6.fX'.#.=.>.y.x ] ;.&.` F.kXw.o.=.,.s.@X=.=.o.] 8X|.#.%.p.r.C 5.%.O.&.d.gXa.Q =.:.,.,.=.=.=. .}.dX] &.p.p._ Y -.&.*.i.jXf.D %.",
"s Y fXP.s d E ! r m R s 8 j.lXw.m m R X.X.E ! d x 8X,XB M O.! l v d s u 9.GXy.f L I X.o.M M S e }.fXW Q Q  .y y d I l ' zXb.p L ",
"n , 0XK.E h f y c l y s @ j.kXi.v > > l = y v m w ;X[.o.P e e v , s u w 1.GXe.f , < # A x W m O ~.fX] Q f p % I i x < ~ gXB.u i ",
"e v &X$Xm p s p 0 m p e * B.GXw.c 9   $ > @ 0 c : %X&XZ A A m y c z * r i.cXa.c r . : 1 # 0 u * +X%X) A q d e r N A r ` cXD.N t ",
"R.Y.CXMXY.R.T.Y.l.v.~./.c.:XLX.Xv.;Xv.W.R.v.~.v.Y.CXVX!.~.~.v.k.v.!.^.v.^.JX9X!.^.W.W.Y.W.V.!.v.VXDX(.!.~.!.v.U.^.U.v.U.JX5Xv.U.",
">X!.0X/.~.}./.>XBX).H.[.P.;XfX].V.[.!.3XyXH.[.].].8X>XK.%X].).DX,XK.].K.].fX`.~.P./.wXNX/.].,X~.qXoXH.].].~.eXwXF.[.|./.fX`.~.,X",
"=. .+.P  ... .=.KXA.X.o.%.O.! X.O.X.c P.%X#.#.>.o.X.! Q *.B 2.GX$XQ $.$.%.$.X.Q o.v N.%X&.X.,.$.` Q E $.#.' gXdXF o.-.%.%.X.o.=.",
"W m c c N N x &.GXB.W V M R t p Q c + H.aX) N B m u u i Q z ~ FX#XW W N N z m N m X 8.gX` t Q n c u N R b C hXrX$.m m I I u m N ",
"* r l x x r * _ GXB.q o w u t t w 0 X C.sX` t 9 t u u u z 0 U FX$Xm @ @ c r r t 8 + t.zX;.e w r r w m e w y aX,XE @ @ r y r u w ",
"l c c c Y v = ` GXC.l + = T Y x , x > ~.hX6.v x x b Y W z l / kXL.x $ , Y b x T x T Z.SXb.R u U l x I z c ~ dX8XN 9 % I I x Y z ",
".XqX(.XX2X1XY.5XAXbXXXXX1XT.XX.X1XnXE.VXLXbX.XE..XY.R.5X7X.X6XAXNX6XE.1X1X*XXXbX4XE.bXLXqX).(.*XT.T.qX;X2X(.VXMX2XT.1X6XE.T.6X1X",
"F.l.DX(.n.D.D.S.C.H.Z.A.b.pXiXA.m.K.C.#X&XH.K.S.t.uXiXu.#XK.`.F.V.B.N.Z.!.BXH.n.`.B.'.L.S.L.L.t.5XkXZ.S.K.B.K.S.P.n.N._.NX!.b.P.",
"D W xXS.R .... .X.Q R D V I.fXg...L s S S L  .j V %XP.o.J E Q X.M D S B i.hX,.h ! s B E S +.o.f H.%XX.o. . .h  . .M B w.fXA.@.h ",
"t C GX/.I s m b s t r s 9 I.KXs.X.r > k l x c m C eX0XW B z y n s m n r d.IXD.P l * * * v c u 0 ).SX' W p s u m d t n ) KX%Xo.d ",
"o l lXF.w u z # m p z l X j.GXd.s @ * @ X r w 9 > 8X,Xl p t t t l p p X [ GXM. .# * + X r r @ @ {.gXv z e p e m w t q b zXL.V 0 ",
"^ / mX~.^ | | / / | 5./ 1 l.BXZ._ / [ 4 3 [ / ~ 1.qX;X^ ' } [ [ { { { < 4.BXV.~ / [ ^ 3 { / ( ~ .X0X{ | ' ' / [ / [ / ^ yX:X/ / ",
"9X3XLXVX;X9X3X2XtX>X7XqX).uXLX0X7XrX4X*X*X2XrXqX4XLXCX(.eX8X;XMXtX:XiX:XtXLXyX<XqX3X6X5X1XwX0X|.HXLX;X9XrX7XnX6X:XyX7X-XZXuX>XiX",
"M.m.A.M.p.,.y.A.eXA.r.a.f.M.m.i.,.s.r.P.sXm.s.M.p.M.M.:.M.g.b.fXK.} m.M.a.G.b.y.p.i.D.xXm.m.M.s.M.m.:.m.m.t.dX).e.u.s.p.n.u.s.r.",
"L Q m m  .L m ] JX6.z N O. .L L m B c ,XhX$.D Q S d E L Q n e.GXm.i d ..D B a L s c m.zX;.R X.D d d ! s m ) gX(.e a @.o.L E D a ",
"w l > , & x * _ LXG.B % O.! & & l z > `.fX] B > 9 z l & = i x AX&XN 2 ! ] > l & T + j.fX&.B y 0 z - > x x = sX,XX.K I :.v & < x ",
"9 r # > # r @ W uXf.p o d f # > $ $ @ K.lX&.z X t z k # % 8 z SX#XA . e B > 0 O . X n.zXg.p + @ z * k > > k dX%Xa X % V @ - # X ",
"9.3.1.4.7.7.1.0.AX{.5.{ 8./ 6 q.3.4.1.2XDXC.7.{ 7.4.4.7.4.[ 8.CXoX6.^ | 7.6 1.3.4 1.^.JXC.3.{ h.4.4.7.0.4.1.yXyXt.4 4.8.4 4.q.6 ",
"rXnXnXnX>XfXrXeXVXhX8X9XfX9XMXqX5XqX;XuXFX>X).>X2XMXnX7X9XfXdXCXnXdXiX0X4XMXOX0XeX7XwXDX8X8X2X9XwXyX8XqXfXrXBXNXhX7XrXeXMX4XmXqX",
"%.u.dXK.O.:.,.m.T %.,.;.%.S.fXu.$.,.M.@Xs.,.:.,.;.0XL.` +.<.>._ &.>.;.:.b.fXM.$.s.s.m.M.,.,.,.;.OX%Xr.&.p.a.} ` >.;.;.u.aXS.%.;.",
"s ) gXL.R P +.! - d ! R p n.lX:.a L Q  ...O.L h c ,XaXE  .+.Q z v S L p 9.kXp.f a Q Q O.S F G w [.aX#.d +.+.r n L Q z _ lXM.p L ",
"l < SX~.L f u l = x x > 0 3.uXe.N , & > y 3 I m # .X>X_ R K c * & V y > 4.VXt.u v < - x l m Q + U.eX` K e u ; b c x > 4 uXN.z K ",
"t b SXF.L g g m t p u q A n.FXg.V + . @ w + r a q aX[.M f 8 m 9 x a 9 q 9.KXr.a @ . O w % 9 V o _.%XH S q p t V p q k ( GXG.G 8 ",
"l.c.FX7Xl.x.c.c.h.l.H.j.4.iXDX_.z.x.3.3.l.z.c.0.z.BXyXc.z.J.j.h.z.c.x.7.~.FX7Xc.z.q.k.k.h.v.l.3.eXBXV.c.x.c.k.k.Z.V.7.v.FX0Xz.x.",
"7X.XFXwX).qX7XqXNX7XOXOX>XqXmXOX;XrX2XNXBX;X8X8XOXmXwX/.|.oX.XCXrX.XqX7X7XeX.XoX8X.XnXBX;X>X0X7XqXeX).}.7XoXuXmX8X7X>X2XyX8X).7X",
",.o.*...o.=.@.s.GXm.D %.,.:.$.O.#.-.H L.%X#.-.s.%.%.%.O.%.#.&.GX$X@.o.=.>.-.o.=.%.) F.&X*.=.g.>.%.*.#.o.&.&.jX%XF o.=.,.%.+.+.=.",
"Q m N n W n z ;.KXN.N X.E s m R R B $ ~.eX] D B m W R z B Z 2.FX#X` Q Q N m N Q m & z.gX] D B N W m m R v Z SXOXX.N Q Q m m R B ",
"l * r r v r @ _ JXZ.c 9 w y y y T r . v.FX} z * r l x r c > ( BXG.I * y r = l y y O k.zX} n t r u % u y , , fXoXR w % x = = x r ",
"r w r r c i w Q lXn.%   i K K i y t $ C.8X` n w r y y c u @ ^ lX$Xy . w I c r y y + z.hX;.u r x r y u y * , ,X8Xs o @ u y w c i ",
"Y.Y.T.(.T.(.T.XXCXNX_.Q.Y.Y.R._.R.^.R.NXZX2X!.U._.Y.W.Y._.Q.XXCXwXT.x.R.Y.W.W.Y.!.x.MXHX2XJ.V.!.W.!.!.!.v.R.BXVX2XW.W.Y.R.R.(.T.",
"{.}.OX8X{.}.{._.7X~.+X~._.oXOX.X|.}.~.}.|._.}. X{.rXqX/.].}.}.}._.oX_.Q.oXhXdX_. X_.OXOX_.].].~.rXrX~.}.[.}.)./.+X{._./.8X7X}.~.",
"G m xXD.h @...O. .+.S S D m.zX%.J ..h J J X.+.@.t sXvXL @...o... .+.P L | zX,.h #.S G @.@.=.@.h P.xXB @.+.+.P J ! d B | xX@Xj P ",
"c ^ FX~.s M s x u i y W r I.KXp.` x * l z , T m 1 fX<Xc o.z l N N m z , h.PXM.j x * > l r c b = 2XSX) Q u I z m x m v 1.DX&X..K ",
"0 U SX`.c s t , v r z v X 8.GXA.B r & # # , * r > aX<Xr B t r v z t n # ' IX#XG > > & & l l # * >XgX) N u r z z r n k C GX&XD u ",
"x ( 9XH.T R b 4 ' Z ' ~ # 9.gXi.R x C , < U U r x <X].T W _ U / U v R = / hXb.R b ^ , , v W l r /.}.Y Y W T ( ~ I _ l U fXL.m I ",
").2XLXVX^.<X:X.XtX).;XiXv.iXLX0X,X>X.X1X(..X7X|.2XLXFX(.7X}.(.5X5X:X<X^.1XLXNX:XoXqX-X-X~.,X}.).DXLX/.}.OX(.wX1X;X5X).-XLXBX/.-X",
"L.F. X+Xn.S.B.+XNXV.n.I.I.J.H.H.B.N.z.9X9XC.F.K.F.F.F.n.K.A.Z.eX/.j.S.I.Z.].V.B.N.B.-X0XC.F.F.K.F. XB.F.F.N.SX.Xn.I.B.B.H.H.Z.J.",
" .D D B L E n g.DXr.a m +.X.W N m M z P.sX%.o.D X.S S ! $.S :.zXf.p h ..o.D M M S m I.xX:.o.o.Q V E m +.S H %X].g d  .@.M E Q Q ",
"w x b x = = * w.JXA.V u +.+.z r r m & /.kX] D t * t y ; = # ^ BX'.v s  .X.N r & B @ j.zX| n m w c = - x r C kX2XM I E %.u r r b "
};
