/* XPM */
static char *a99d76c082bf41bbc83ed19014598002[] = {
/* columns rows colors chars-per-pixel */
"64 64 210 2 ",
"   c #2C1D0A",
".  c #29150C",
"X  c #3C1D04",
"o  c #341D0D",
"O  c #3C1F0B",
"+  c #341E11",
"@  c #2D220B",
"#  c #3B2A07",
"$  c #31250C",
"%  c #3D220D",
"&  c #35290D",
"*  c #382D0B",
"=  c #3B2005",
"-  c #3E300D",
";  c #35310C",
":  c #352313",
">  c #3B2413",
",  c #362A13",
"<  c #3C2B15",
"1  c #37231A",
"2  c #3A261A",
"3  c #352D18",
"4  c #3D2B1B",
"5  c #3B3414",
"6  c #3D3A14",
"7  c #3E331A",
"8  c #3F3A19",
"9  c #3F2D21",
"0  c #3D3623",
"q  c #43240D",
"w  c #49260B",
"e  c #42290E",
"r  c #4C2A0F",
"t  c #432612",
"y  c #442A15",
"u  c #4B2C14",
"i  c #442C1C",
"p  c #4A2E1A",
"a  c #502E13",
"s  c #502D19",
"d  c #443315",
"f  c #4D3117",
"g  c #433B16",
"h  c #483A17",
"j  c #43341D",
"k  c #4C321D",
"l  c #433C1C",
"z  c #4B3A1D",
"x  c #523116",
"c  c #53341D",
"v  c #59371C",
"b  c #553A1D",
"n  c #5B391E",
"m  c #603717",
"M  c #643D1E",
"N  c #432D22",
"B  c #4B2F23",
"V  c #453222",
"C  c #4C3423",
"Z  c #453C22",
"A  c #4C3B24",
"S  c #463229",
"D  c #4C3629",
"F  c #4E3A2A",
"G  c #473C2A",
"H  c #533622",
"J  c #593723",
"K  c #553A24",
"L  c #5B3C24",
"P  c #523729",
"I  c #533C2B",
"U  c #5B3E29",
"Y  c #4D3930",
"T  c #533D32",
"R  c #5A3E31",
"E  c #613E23",
"W  c #693F26",
"Q  c #613D29",
"!  c #44411D",
"~  c #49451E",
"^  c #4B4A1C",
"/  c #524E1F",
"(  c #585717",
")  c #474320",
"_  c #4A4423",
"`  c #4C4A24",
"'  c #4D442A",
"]  c #4D4B2B",
"[  c #534325",
"{  c #5C4127",
"}  c #524C27",
"|  c #54422C",
" . c #5D422C",
".. c #524D2A",
"X. c #5B4D2D",
"o. c #4F5024",
"O. c #535326",
"+. c #5C5A27",
"@. c #54532B",
"#. c #5B542C",
"$. c #5C5D2C",
"%. c #4E4D31",
"&. c #554231",
"*. c #5B4332",
"=. c #534D33",
"-. c #5E4934",
";. c #5B4439",
":. c #5D4839",
">. c #545433",
",. c #5C5432",
"<. c #5D5A34",
"1. c #575838",
"2. c #5F583C",
"3. c #624126",
"4. c #674927",
"5. c #63442C",
"6. c #6A462B",
"7. c #65482D",
"8. c #6B492E",
"9. c #6E4525",
"0. c #734A2A",
"q. c #625E2D",
"w. c #61532E",
"e. c #634631",
"r. c #654A34",
"t. c #6B4C34",
"y. c #624639",
"u. c #654C3B",
"i. c #6C4E39",
"p. c #714E33",
"a. c #734E39",
"s. c #794D34",
"d. c #635336",
"f. c #6E5137",
"g. c #645C34",
"h. c #66503E",
"j. c #6D513B",
"k. c #695C39",
"l. c #745136",
"z. c #7B5434",
"x. c #775937",
"c. c #73543C",
"v. c #79563B",
"b. c #74593D",
"n. c #7B593E",
"m. c #5B622F",
"M. c #5E6031",
"N. c #64632F",
"B. c #6B662E",
"V. c #6A6B2F",
"C. c #656233",
"Z. c #6B6236",
"A. c #6C6B32",
"S. c #616238",
"D. c #6D643A",
"F. c #6E6A3C",
"G. c #646B35",
"H. c #716D30",
"J. c #6B4E40",
"K. c #634A43",
"L. c #665140",
"P. c #6C5442",
"I. c #745641",
"U. c #7A5642",
"Y. c #755943",
"T. c #7B5C44",
"R. c #755C4A",
"E. c #7C5E49",
"W. c #71564B",
"Q. c #7D6043",
"!. c #7E624B",
"~. c #716E43",
"^. c #7C6251",
"/. c #815635",
"(. c #815936",
"). c #825939",
"_. c #8C613F",
"`. c #815E43",
"'. c #815E4A",
"]. c #846146",
"[. c #8B6344",
"{. c #83634B",
"}. c #89664B",
"|. c #87694F",
" X c #8C694D",
".X c #926B4C",
"XX c #926C47",
"oX c #9A704A",
"OX c #846651",
"+X c #866954",
"@X c #8B6B53",
"#X c #8D6F59",
"$X c #916E54",
"%X c #936E5A",
"&X c #996D52",
"*X c #8F7053",
"=X c #8F715A",
"-X c #947155",
";X c #987152",
":X c #92735B",
">X c #99765A",
",X c #99795E",
"<X c #A27B5C",
"1X c #947661",
"2X c #9C7C63",
"3X c #9E7F6A",
"4X c #957963",
"5X c #A47F63",
"6X c #A38369",
"7X c #A28772",
/* pixels */
"<.,.#.$.F.N.$.N.G =.2...O.q.A.B.<.O.O.<.>.>.#.g.w.q.F.$.m.` ! <...O.+.A.V.N.g.} #.,.,...g.g.} D.G.+.M._ _ 2.| ,.( H.Z.B.D.^ >.<.",
"* g.X.g k.C.^ / V &.| 5 ..g.C.q.~.^ ; _ ` ! ~ F.# #.Z.O.O.6 - d.A _ $.N.q.Z.k.z 5 ` ` * X.,.# k.Z.} ..8 Z ,.d l C.+.q.D.k.y 5 ' ",
"K [ K } [ g h #.< K j < | ..} <.} [ d j z [ z h r.7.- d #.[ d C < A } ~ X.#.b K z < C *.j K d.~ e d X.k 7 z 5 | ` ` d.[ z A Z 5 ",
" .y { b.f d { { y f k z ' 7 7 ] y { I H y H { k !.r.* K X.K C i N I V & h ' F -. .F % J H  .U.H x  . .I F k C [ 0 3 F | K  .r.u ",
"U j.c.i.j.#XR.y U.i.e. .C 4 4 7 j.f.j.W.P p t.I. .i.'.:X5.H P.y.y.P V d y | I.y.W.i.p R U.i.U U.-X{.H y.E.y.*.k 0 4 N *.W.i.U.r.",
"T.T.n u j.=XI.i T.5.p t = k U H f b  .i.J a.'.8.t L {.}.J e.I.C B > y | H p L J t.R U '.U.J s a.|.U.p I.J.q y X V r.P p H L i.k ",
"-XQ.n f e.t.r.j.P.K u U L 5.t.v.L 7.Q Q Q '.$X6.P L t.6.6.v.u.i L e.7.r.E.t.E 3.U t.e.#X'.Q c 6.5.r.t.Y.Q s 6.p.r.t.v.a.5.{ i.5.",
"3.*X*X3.5.U e.I.r.I r.2X2Xa.W &X,XU.5.U.e.Q `.>Xf. .E E v.a.H *.}.2X|.L c.6X$XM T.t.U a.{.@Xv 5.{ r.R.r.J i.%X5Xl.L -X5Xn.5.j.r.",
"!.j.5.L ].,X].`.z.p.L i.+X*.> E.E.a.5.5.c.{.a.5.n n.>X.X`.v.a.U  .P.Y.t 5.{.n.3.E p.T.U.t.U r.@X-XXXz.v.4.{ 8.].I y c.].7.J r.L.",
"*.t.7.L t.@X].7.T.l.U j F r.f.Y.a.5.H v L e.i.r.L W }..Xp.6.R.i.H K r. .U.b.3.L v L Q 7.i.e.U I.{.U.t.`.U.K u e.u.j.U.0.6.n A  .",
"H c.c.e.L 3.p.n f.5.K k K t.l.l.L 5.t.a.H u t.v.i.U E p.3.6.i.U u C r.f.c.7.K t.c.L u L c.i. .H r.e.R J. .C C T f.t.l.3.6.c.t.u ",
"e.f.t.b.U w 3.3.c t i K 5.5.E m L T.2X:Xp.5.v.e.P.e.q H 6.J > t U  .5. .L 5.7.@X2Xv.e.a.t.i.j.q p e.U i > P y. .3.5.4.v n.>X-X7.",
"I.e.L Y.t.L ]. XU L Y.R.k E [._.c Q {.{.c.b.t.s R.i.U OX@X5.J E.E.K f ].@Xr.k +X`.n.U.a.U t.R.K U.,XQ.{ b.!.d.e l.>Xn.u l.}.`.v.",
"K k t.Y.3.t.-X-Xc.b.!.E. .5..X<X5.u U T.v.Q H t.W.I 8.+X.X`.`.T.|.7.L +X4Xt.t  .c.v.J r U c.i.K n. X].x.n.Q.b.b v.-X{.c v 7.n.8.",
"p K c.7.J t.p.a.XX].7.t.E.R.b.c.c.J c i.a.H c c.:.U t.p.z..X`.6.6.).T.c.j.I.{ O t.a.L a i.a.U e.l.l.[.].p.W v.T.v.t.j.*.i k v.7.",
":X!.t.q v T.4.8./.[.).t.U 5.7.L E t.J c T.:X}.i.i J v.6.0./.).;X8.E 5.r.{ I -.*.x `.:X+Xi.p y E.3.p.l.].%Xc.E Q 4.5.| *.u.K l.%X",
"XXn.6.J J.J.c c.b.a.{.T.e.p p '.e.u 3.{.Q.].{.n 5.t.f.f c.Y.4.|.U.t.f X T.f.y 5.T.}.`.}.L 5.t.c.v t.U.7.E.|.5.J q a.'.q J T.{.T.",
"l.l.5.U.a.c t.I.U Q I.t.i.a.U @Xc.c 5.!.n.b.l.4.R.r.c c.b.3.n 8.f.i.f.5.E.f.J H }.n.l.l.t.l.f.f t.a.t.J 6.t.t.I.5.p.E.L v c.OXc.",
"x.E.c.i.s L }.l.v t 5.u Q 5XOX8.r.f.5.L t.n.x.T.r.c v @XU.u r 6.e e.=X+Xc.t.f.5.v 8.b.c.T.5.K q @XE.v % Q c U :X:Xi.5.I.t.U 5.c.",
"K y r.e.5.}.[.n.5.U c.L J OX@XU K c.f.f.t.u x l. . .+X!.U.7.n l.v 7.{.|.7.K t.c.l.p.v r 6.{ r.=X{.T.Q v c.5.Q {.{.t.v i.a.I.8.5.",
"*.:.+XI.b.@Xt.6.c.T.c.n.n.7.5.n k 5.8.+XT.L v. Xc.E.=X7.6.Q.n.c.Y.t.5.K u c t.7.|.c.5.T.@X!.j.=Xe.5.T.{.T.c.b.5.U s J 8.L '.'.L ",
"P OX+XT.a.6.5.s t.*X].c.5.J t.b U U I.@Xt.5.$X].R.Y. .{ c f. X}.c.L r.t. .n 5.f.>XE L |.!.!.t.{ 7.c a.#X+Xr.Q L b.L s e.v.OXv.c ",
"O q c x.f.k P y.3.T.-X3.X 7.-X Xr.e.OX+XE O q n Y.e.u 5.L t.[.=XK q c.=X+X{ t.:XT.b q y  .I.*.u J 5.8.T.+XJ c i.%X{.8.5.|.'.5.q ",
"%XL Q.n.K c i K.*X7.7.b 4. X5.4.U U J O t.+XQ }.c.K f e U.].5.8.v f.@X5.{ 5.5.f X U.+XL +Xj.c H r '.{.e.W J c.@XU 7.5.L c O i.@X",
"%Xt.U.|.'.`.n 6.@Xu f U.+X{.c. .E t.u 5.+X{.5.n.].}.z.x v.I.t I I.@XE.t.Q 8.Q c 5.@XU.5.T.}.`.n.u OXu.%  .`.[.[.a.L t.5.u I.{.{.",
"R J 5.E. X1X`.6.U J K T.@XT.5.5.c.`.r.+X+XL c n.{. X-X).t.L I ;.{.{.i.8.5.T.T.5.=XT.L n l.].[.$Xc.*.{ H U `.}.0.L 5.{.U.6.@XR.v ",
"u U t.a.E v.}.n.y c.7.L 5.5.b c n.{.7.j.K u 7.p.3.3.].|.L b ^.&.c t.t.c p T.OXU Y.v u 7.l.E 4.`.,Xc 5.E.{ L p.6.u L E.'.t.c.c q ",
"J E.'.L X 8.}.l.J b.{ q y K c L a L v u.U t.}.l.c u v.].4. .Y.k u q u L 5.v s 5.5.v t.@Xt.e L `.n.L r.u.p X w b Q J v H L Q c v.",
"5.I.@XU.J 6.W 6.{.7.c 5.T.Y.5.!.].c.5.j.e.5.T..Xt.f 3.3.n.`.5.H i.{.a.Q T.'.7.U j.*.f.+XT.5.L 3.3.{.U.K U Y.T.8.e.T.b.7.8.c.U i.",
"t.i.'.T.6.t.4.T.:Xt.L b.=X@XL t.>X|.r.5.j.j.c.].j.r.v.8.[.}.L { '.2XE.c '.2XE.W j.t.r.b.T.t.7.7.l. Xn.K r.=X2Xb.J %X2XU.U a.i.p.",
"t.I.t.L J }.>X$Xc.Y.r.L { c.b K v.b.5.K r.Y.c.3.K u.,X-X].l.t.t.v t.e.u t.T.t.v  .P.Y.c.7.J c.2X[.c.l.j.I  .i.5.v c.U.e.v t.i.U.",
"y J e.T.3.E U.n.{ T.b.J q 5.f.T.v.3.J  .k f 5.v.u.K r.T.8.5.{.5.p s t.v.T.t.U U K k k r.c.5.5.f.).M c.!.U y K i.T.c.5.5.L J t v ",
"n v f.f.j.L u 5.I &.j q H 5.3.5.L  .!.%X7.a 6.v.c.t.r U R P C i k *.e.Q e.n 8.$X Xx E T.7.b.P k { K K k y A *.r. .5.5.b.$XU.u 6.",
"}.{.t.b j.5.U I.!.t p !.f.c 7.T.j.K T.:X'.{.v.v e.J.J t.T.U y t.j.c U U.v.J p.$X X}.v.5.U I. .H c.b.k f P.t.f  .I.i.c T.$X{.[.v.",
" Xp.f 7.!.5.i.:X Xv.n. Xc.L c.2X!.f  .b.`.{.3.v c.i.e.+X2X`.z..X|.5.5.+X4XL p I.l. X7.c 6.i. .f.>X*X8.b.:Xf.c c.6X+Xu J U.].`.6.",
"p.v b f.r.k r.U.).XXz.3.c.-X{.I.E.K u L b.L u p.P.C Q z.v.`.).0.6.`.}.v.T.r.H i z.p.a n Y.t.I r.p.]. Xn.4.b.:X`.I.i.Q c E v.v w ",
").}.|.t.f  .Y.U 9.).[.`.3.7.e. .H i.L c t.|. Xp.H H c.8.3.[.[.).6.8.c.Q U t.y.H 3.n.|.].L y  .I.9.8.`.-Xz.J p.t.e.8.7.J v T.`.@X",
"`.@X!.{ K i.5.K ].v.l. Xc.v q J !.K u !.|.T. X6.H i.i.L c.'.0.}.'.E r s T.R y P.n.[. XT.L *.j. .6.[.a.v. Xt.J q Q I.u L I.`.}..X",
"`.n.8.f.I.7.c c.!.r.k r.t.i.7.t.{.K f b.T.c.v.6.i.t.s r.OXI.f r.e.c.t.U '.t.u 6.].n.c.f.t.c.L H c. XL v t.i.i.P R.{.s E T.T.v.c.",
"6.x.c.b.e.c U 1XP.V C e.q T.6X].U Y.c.K 5.v.p.b.a.c H 1XE.k V u.t y.7X#X5.p.z.E M p.c.c.f.r.> c.@X .t 7.H H :X1Xa.e.a.t.x p.v.a.",
"I.L q c.7.4.,Xl.).3.x.}.t.8.n.v.K 7.c.I.c.Q u 5.s.W 1X'.i.t.M oXt.e.U.I.Q 5.t.`.a.t.O L l.L $X|.v.l.E ].].3.b.[.c.H f.f.!.t.L t ",
"OX5.!.:XT.n.l.f.3.c.T.n.n.l.E v v J L T.T.e.T.1X`.`.U.e.5.p. X/.T.t.t.L t J 5.e.+Xe.n.+X{.c.n.z.n l.{.}.p.p.7.v u H 7.L E.c.7.{.",
"U.e b t.I.c.c L c t.{.=XL r 8.{.5.U I.#XU.H L i.U.a.L J L 5.$X[.i.u U T.t.H t.#X+Xy L t.U.b.L E L L !.-Xt.c L T.r.K 5.!.=X5.y !.",
"x 3.u 3.c.J p p t.f.c.E.c b E.Y.c.H a.e.J U u L v.H c p r.c.t.T.u H U.E.t.r.t.j.K H u c t.L a e 3.c.t.T.L u t.!.E.U t.R.r.K u y ",
"b =Xt.c.!.-.y.t I.R.u f r.!.I. .e.c k % e.+Xy.c.!.r.7.q t.{.s P  .I.!.*.H L c y K !.t.r.E.5.5.r  .+Xc k U i.!.5.U K H % y c.!. .",
"!.f.y  .E.E.E.y.e.U i c R.R.j. .k R. . .E.i.U *.Y.!.!.L 8.5.i C E.E.j.K U r. . .{.P.I  .E.!.!.5.r. .y k I.^.R. .K j. .K R.R. .U ",
"E.y y r.5. .j.!.U p e.{ { u.e.t H !.i.i.r.t c  .y.r.I.T.5.p R T U i. .t K E.I.L Y.y p { r.r.Y.E.{ k r.K r.f.U c K I.I. .I.K y I ",
"P C u.I.d % 7.T.| C j.i % % y k C p k U K C r.i.j t 7.`.J B W.S O > p p C K H I I j r.i.k q { |.| i P.k o < k y C C  .P U y { j.",
"*.I { I.P.y C F  .f.K t K  .K  .r.5.k H  .U f.E.I p K K  .P.H i J U H L i.*.N T U k I.R.P p U c 5.j.K y P K c {  .{ k z U K j.!.",
"U U *.L.r.H  .K P.j. .H u.+Xj.y j.+Xu.H  .U I c.u.H P I r.I.P p f.+Xt.p u.^.u.H y.U *.i.i.K P P f.j.H C P.+Xj.y R.!.r.{ L K  .r.",
"C K  .-.k C r.R.u.| *.I i F  .> U *.I k H I e. .C H c.R.u.e.R U N -.H i *.i.K y C y.r.I H H P.R.-.r.T C D *.K < 5.r.H y K  . . .",
"I t < I I I C | *.F *.I > < I *. .{ C C k y i K P k I *.P P *.p > N I *.*.H p L k > i R P C U u.A *.:.D > 4 F  . .I A k i y A A ",
"L.I C I | I > % C N > > 4 j V C C y  .I.r.C C { R P > t C t > > 9 N D I C p U c.y.i C U U P O i j y : + 2 C F k k i r.I.K i K  .",
"L.L.*.V D I j F u.I < j *.C y I h.< C P.y.-.-.i i -.V I P.N > I T 4 i -.R i K I.-.u.;.i C I 4 &.r.j > D T B i X.K > T R.u.-.P j ",
"C &.V o C I V D f.y. .y.e.H K I.u.K > < -.-.i > C I N &.W.u.*.:.r.C C P.u.4 : D *.D > i T I i y.j. . .u.*.p K Y.u.4 > C *.T N i ",
"4 I C i | i > F k L 5.K f  .r.C C C < o j D < C I i p P N I L.i p r.u.P D V 2 1 C I > C C 4 C P c  . .k k e.r.c F i + 4 I i % I ",
"d K j.d.d = d A N T D ;.&.4 N + 2 C i i C :.L.&.% < F V C K K u.T 4 + N N N N N C y.i.C o i I i H P &.u.i i > C N i i i C r.r.z ",
"| I F F S i i < C T i S T N N + &.j o i I *.| D N N i 2 T ;.N S S S 3 4 F 2 + S y.T F V p B i + &.I N I B i o 4 T > > I *.| k y ",
"1 N S S F S 2 2 &.D   : 3 > T :.D V 9 V V S S D F 1 1 V Y 9 . 9 > V Y &.G i 4 V B D P F N : 2 F F 4 o i i P F F D 2 i D I F F k ",
"0 S 3 1 4 4 9 F D V , j V , D &., 1 7 4 4 7 < , V 1 9 &.G : @ | $ j | G : < V 3 3 3 9 V 2 2 V &.V + 1 9 : F &.V + V 4 > , > < Z ",
"' 7 $ & 0 ] .._ l 0 7 ) A 7 l 7 0 , 8 ' ' 3 @ 5 ) ` | ) 8 l l l 5 A Z 7 5 , , _ ' ,   3 G &.' 7 V 7 G ' 3 Z Z 4 $ 4 7 Z V @   G ",
"g 8 ! ^ ` o.) 8 ) 8 5 ! 8 5 ' .._ ` ] _ l 6 8 _ _ } ~ 8 8 ! g 8 ) l l ` _ Z _ ..) 5 7 ' ' ] ' l 8 ' 0 Z _ Z 7 ' _ l ) >.] 8 5 Z ",
"` ` O.` 6 ; ! ` ) ! ! ] ) 8 _ ..o.@.` 6 6 ! ] ` ) 8 8 ! ] ! ! _ l 5 _ @.` @.,._ 5 8 _ @._ ! ! ) ! ) 8 8 _ l 8 } @.O.O.] _ ! l 0 ",
"] ] ` ] @.>.@...] ] ` ] o.] @.` @.@.^ o.O.O.O.` %.] ] >.%.%.%.] ] O.....@.>.O.] ` ] @.@.O.` _ ` O.` ..O.` ` O.` ^ O.#.#.o.! ) <."
};
