/* XPM */
static char *fa99a3565bb14bef871ed8aab89973aa[] = {
/* columns rows colors chars-per-pixel */
"64 64 242 2 ",
"   c None",
".  c #111D31",
"X  c #7E3422",
"o  c #7A321B",
"O  c #267038",
"+  c #1B522F",
"@  c #48431F",
"#  c #555128",
"$  c #70562C",
"%  c #586B34",
"&  c #716938",
"*  c #123552",
"=  c #191674",
"-  c #242B76",
";  c #253A76",
":  c #222669",
">  c #212757",
",  c #4D2266",
"<  c #1F5946",
"1  c #265553",
"2  c #347D56",
"3  c #276C52",
"4  c #104364",
"5  c #254769",
"6  c #294C79",
"7  c #295777",
"8  c #315B7B",
"9  c #286768",
"0  c #2C7567",
"q  c #2C6776",
"w  c #2A7678",
"e  c #357678",
"r  c #34736D",
"t  c #147F69",
"y  c #7D7E4E",
"u  c #7C7B79",
"i  c #B11214",
"p  c #A43527",
"a  c #A10628",
"s  c #DD0112",
"d  c #CB060A",
"f  c #FE0001",
"g  c #FF000B",
"h  c #F40008",
"j  c #FD0115",
"k  c #F70116",
"l  c #E70216",
"z  c #87482B",
"x  c #920062",
"c  c #991146",
"v  c #30893B",
"b  c #1D8E5E",
"n  c #278659",
"m  c #269243",
"M  c #2C8465",
"N  c #358868",
"B  c #2D8478",
"V  c #368776",
"C  c #528643",
"Z  c #5A8661",
"A  c #67AE76",
"S  c #5FAC73",
"D  c #77CD73",
"F  c #9A9A71",
"G  c #D0D172",
"H  c #241C88",
"J  c #280B9C",
"K  c #231B9A",
"L  c #292789",
"P  c #2A3D88",
"I  c #292798",
"U  c #2C3A9C",
"Y  c #32399C",
"T  c #362C96",
"R  c #1613B0",
"E  c #2818A7",
"W  c #311CB9",
"Q  c #2A0AB0",
"!  c #2D2CAC",
"~  c #2B27A7",
"^  c #2E36AD",
"/  c #3438AA",
"(  c #2D2BB3",
")  c #2A25B9",
"_  c #312DBB",
"`  c #3127B7",
"'  c #3434BD",
"]  c #3539B4",
"[  c #312EB3",
"{  c #1B378D",
"}  c #443FBF",
"|  c #1F4582",
" . c #2A4888",
".. c #2D5789",
"X. c #34499A",
"o. c #2D5995",
"O. c #315593",
"+. c #335798",
"@. c #2F4C94",
"#. c #2A6484",
"$. c #36668A",
"%. c #397585",
"&. c #396495",
"*. c #2B6D91",
"=. c #324CA4",
"-. c #3547A7",
";. c #3357A4",
":. c #2C45AD",
">. c #3568A1",
",. c #4F4F95",
"<. c #767599",
"1. c #747492",
"2. c #4949AC",
"3. c #5351A7",
"4. c #5B59B4",
"5. c #4A48B1",
"6. c #6455AD",
"7. c #6C6BB6",
"8. c #6C6BAF",
"9. c #517191",
"0. c #160EC7",
"q. c #1B15CB",
"w. c #130ED9",
"e. c #1813D7",
"r. c #0D08DD",
"t. c #2F07CC",
"y. c #2A1BC5",
"u. c #3318CB",
"i. c #2C05D4",
"p. c #3104DA",
"a. c #2D13D7",
"s. c #331BD2",
"d. c #3214DB",
"f. c #341AD7",
"g. c #3A07CD",
"h. c #003CCB",
"j. c #2C24CA",
"k. c #2C26C4",
"l. c #322CC3",
"z. c #3222CC",
"x. c #322ACC",
"c. c #3425C2",
"v. c #3535C8",
"b. c #2824D8",
"n. c #3425DA",
"m. c #3626D8",
"M. c #3632D5",
"N. c #2E31D9",
"B. c #1806EC",
"V. c #1A14E8",
"C. c #1B14F8",
"Z. c #1106ED",
"A. c #3406EA",
"S. c #341BE2",
"D. c #3413EB",
"F. c #3617EA",
"G. c #3502FE",
"H. c #3D04FF",
"J. c #3B0CFF",
"K. c #3609F8",
"L. c #231DFC",
"P. c #261CF8",
"I. c #3512F2",
"U. c #3514FC",
"Y. c #3C13FE",
"T. c #3C1DFF",
"R. c #371AF9",
"E. c #2809EE",
"W. c #1A33FF",
"Q. c #2B25E5",
"!. c #3826EA",
"~. c #3B35ED",
"^. c #3D39ED",
"/. c #3934E5",
"(. c #2C25FF",
"). c #2925FC",
"_. c #3C24FF",
"`. c #342DFE",
"'. c #3E2CFF",
"]. c #3928F4",
"[. c #3C36F3",
"{. c #3D39F3",
"}. c #3D34FD",
"|. c #3F3AFC",
" X c #3731FF",
".X c #2037F2",
"XX c #4008FB",
"oX c #411AFF",
"OX c #4214FF",
"+X c #4124FF",
"@X c #412BFF",
"#X c #413AF5",
"$X c #4134FF",
"%X c #423CFE",
"&X c #364AC1",
"*X c #6344D8",
"=X c #7373C9",
"-X c #5854C9",
";X c #8079C2",
":X c #378388",
">X c #419881",
",X c #7CAF84",
"<X c #66C581",
"1X c #888888",
"2X c #94939E",
"3X c #878F90",
"4X c #8FA794",
"5X c #B7B89E",
"6X c #B9B986",
"7X c #8F8DB4",
"8X c #AAB0AD",
"9X c #A49098",
"0X c #C2B4BE",
"qX c #CECF95",
"wX c #DFE09C",
"eX c #E8E89B",
"rX c #F3F497",
"tX c #D2D2A9",
"yX c #C9C9A2",
"uX c #EAEAA8",
"iX c #FAFAA7",
"pX c #FEFEB5",
"aX c #FFFFBC",
"sX c #F2F2B5",
"dX c #E7E7B9",
"fX c #9F9FCE",
"gX c #C8C9C8",
"hX c #DCD4DA",
"jX c #D8D5CA",
"kX c #FFFEC5",
"lX c #FFFFCD",
"zX c #FFFFD2",
"xX c #FFFFDB",
"cX c #E6E4DD",
"vX c #FDDDF8",
"bX c #EDDAE7",
"nX c #FCFAE6",
"mX c #FFECFF",
"MX c #FFE6F8",
"NX c #FFFFFF",
"BX c #FFF7FB",
"VX c #CCCCE3",
/* pixels */
"                                                                                                                                ",
"                                                                                                                                ",
"                                                                                                                                ",
"                                                                                                                                ",
"                                                                                                                                ",
"                                            V %.%.                                                                              ",
"                                    %.;.] j.I.U.U.F._ ' _ o.                                                                    ",
"                              m - E t.A.OX+X$X#X^.}.@X$X}.OXI.z.X.                                                              ",
"                                        ..] c.I.oX}./.[.|.}.|.}.T.i.-                                                           ",
"                                              N  .S.@X[.x._ [ [ _ x.a.U =.~ ^ +.                                                ",
"                                                  b f.` ! l.M.[.[.[.|.'._.%X$XT.D.j.+.3                                         ",
"                        ..X.+.#.#.>X                O t.%X|.[. X`.}.~.~.~.~.~.{.}.}.T.Y.A.9                                     ",
"                     .G._._.T.T.T.I.S.!.f.l.O.      ' }.^.[.L.a.I R L.}.(.C.C.q.0.V.`.#X$XA.                                    ",
"                  w G.Y.R.U._._.'.@X$X}.}.@XoXR.L ! '.~. Xb./ 8XtX1.=XT 4.=X7.7XfXfX_ ).#XJ.w                                   ",
"                  ; 5.V     %.+.&.+.v.R.T.T.'.%Xz.n.|.[.V.8.xXNXNXy 3XI 1.zXNXNXxXF 8Xv.].R.%.                                  ",
"                              n M 3     $.+.^ F.p.s.%X{.0.8XnXgX7X~ w.}.L.2.gXNXnX5XkX3.C.T.*.                                  ",
"                9.  *.' s.F.F.].R._.v.          B 5 t.}.~.v.2.) w.`.|.N.M.C.E fXgXVX4.b.[.Y.*.                                  ",
"            3 E y.y.A.J.Y._.@X}. X}.@XY.( e         3 U.%X`.).`.{.[.|.= . #X(.B.r.V.L.[.[.S.                                    ",
"                        9  .^ ' l.n.I.Y.OXOXS.l.' %.  o.+X[./.^.{.Q.l.! J q.l.v.N.k.k.~.@X_                                     ",
"                                      w O.z.Y.+X'.J.+.v L '.$X[.B.3XeXdXjXyXuXuXtXG ,.(.H.q                                     ",
"            1 ; P I ~ o.:X                  w ` f.U.oX!.- < v.J.C.7XeXuXsXpXaXiXrX6X/.U.`                                       ",
"                    X.c.p.i.p.D.v.X.e             r ( Y.OX/ v   / 0.L F eXqX9X3.6.d.E.W                                         ",
"                            :X+.j.G.G.K.=.            N +.u.k.m 6 m.q.! -XT *  .{ o.                                            ",
"                                      >.D.A.$.                H T.%X%X`.L.a.                                                    ",
"                                        v 6 J L                ._.~.~.~.'.^                                 V %.                ",
"                        M O.] ] ] l.n.m.&X;.^ s.Q 5     $.( D._.^.~.~.~.~.[.m.Y q                       -.H.G.G.Y.S.k.8         ",
"                    q u.K.T._.'.'. X}.}.'.@X$X#X%Xd.> : I.@X{.~.~.~.~.~./.[.$X+XY.s.] @.N           ..g.p.;.$.=.l._.}.J.~       ",
"                w W Y.@X[.~.}.'.T.U.U.R._.@X+X%Xl.~ !.!.~ /.^.~.{.(.`.`. X[.^./.~. X'.oXD.a...    Q g.&.          7 J.$XG.2     ",
"              W J.@X#X#XT.K.s.] +.%.%.%.@.P -.^ ! [.}.%XM.M.[. Xe.] v.y.q.V.(.|.[.[.^.~.[.$XI.+ 1                   9 F.+X/     ",
"            t.+X[.^.@XI.X.e                   * s.}.~.~.[.[.}.q.1XuXuXtX5X<.] q.w.L.#X~.[.~.y.L                         R.B.    ",
"          ` oX^.[._.u.t                       S.M./.^.~.[.[.C.2.iXxXzXlXzXaXiXyX2X3.V.#X~./.~.n.                        K *XZ   ",
"        * Z.(.|.J. .        m ; ] ;.:X      o.Y.}.[.~.~.~.`.) qXzXkXkXkXkXkXlXlXzXrX,.P.[.~.$Xs.                    8XhXcXNXNXu ",
"  ,XD ,X7X7.] R 4             V =.A.G.I./ 9 U }.~.~.~.~.~.C.<.aXlXkXkXkXkXkXkXkXkXkX2XZ.~.~.$Xj.                  3XmXNXNXvX8X  ",
",XmXmXNXNXBXnX1XD                   w v.H.A.x.|.~.~.~.~.[.w.5XlXkXkXkXkXkXkXkXkXlXiX-.(.~.~.}.j.                                ",
"0XNXNXNXNXNXNXNXNXMXS                   V ; ) |.~.~.~.~. Xk.yXzXkXkXkXkXkXkXkXkXlX2Xr.#X~.~.T.=.                                ",
"bXNXNXNXNXNXNXNXNXBX    < J v.5             t.[.[.~.^.^.(.] iXlXkXkXkXkXkXkXkXlXiX5.L./.~.~.T.O.                                ",
"hXBXNXNXNXNXNXNXNXbX        ` H.+XS.l.U     ].}.~.~.~.~.(.' uXlXkXkXkXkXkXkXkXzXrXk.`.[.^.{.J.q                                 ",
"S BXNXNXNXNXNXNXNXgX          q _ D.Y.+XF.5 ] }.~.~.~.~.|.e.yXlXkXkXkXkXkXkXlXpX,.C.[./.^._.W                                   ",
"  4XMXNXNXNXNXNXmXA                 ..a.Y.K.z.%X~.~.~.~.}.0.yXzXzXlXkXkXkXzXaX1Xr.#X~.^.'.u.                                    ",
"    A 8XhXMXmXbX4X                      %.0 P ].[.~.~.~.~.P.3.qXiXiXpXpXaXiX1.r. X^.~.$XA.                                      ",
"            <X                              5 F.%X[./.~.~.#XQ.) ] 4.8.8.8.3.V.}.~.~.{.Y.8                                       ",
"                                        5 g.x.; ` ~.[.~.~.~.[.`.(.L.C.C.C.L.[./.~.~.@Xy.                                        ",
"                                            2 * H |.$X~.~.~.~.~.~.~.~.^.~./.{./.%XoXp.n                                         ",
"                                          N v.m.x.].M.[.~.~.~.~.~.~.~.~.~.[.M./.E #.                                            ",
"                                      X.s.Y.$X+X~ : F.#X~.~.~.~.~.~.~.~.~.%Xm.E J                                               ",
"                                   .d.oX@XY.D.Y     ! H.'.^.~.^.~.~.~.^.}.T.! - +X]                                             ",
"                              0 c.Y.T.D.[ $.          0 u.U.+X_.@X}.@XY.d.8   B Y.D.                                            ",
"                             .J.OXd.-.n                   ..=.-.k.s.l.O.        u.Y...                                          ",
"                          T T.OX/                                               @.OXc.                                          ",
"                      0 A.oXY.6                                                   I.R.                                          ",
"                    2 D.@XI.0                                                     ^ H.w                                         ",
"                  M A.'.oX9                                                       e H._                                         ",
"                  c.@X$Xj.                                                          D.oX..                                      ",
"                  d.%X$Xn.                                                          P Y.Y.6                                     ",
"                  W.W..Xy.                                                             .Y.T.u.O.            % z i $             ",
"  C X X p p & $ # , c a d #                                                             7 K.@X_.D.N.h.a f k g g g f             ",
"  h g g g g g j j g f g f %                                                               M ( I.]..Xx f g h g h s z             ",
"% f j j j k j j j j j g d                                                                     r :., d z @ $ &                   ",
"  % i f g j j k j j g d v                                                                                                       ",
"      & $ i l j s $ C                                                                                                           ",
"                                                                                                                                ",
"                                                                                                                                ",
"                                                                                                                                ",
"                                                                                                                                "
};
