/* XPM */
static char *b242b753410a40c6bc05d125e4618461[] = {
/* columns rows colors chars-per-pixel */
"64 64 94 2 ",
"   c #515151",
".  c gray32",
"X  c #535353",
"o  c gray33",
"O  c #555555",
"+  c #565656",
"@  c gray34",
"#  c #585858",
"$  c gray35",
"%  c #5A5A5A",
"&  c #5B5B5B",
"*  c gray36",
"=  c #5D5D5D",
"-  c gray37",
";  c #5F5F5F",
":  c #606060",
">  c gray38",
",  c #626262",
"<  c gray39",
"1  c #646464",
"2  c #656565",
"3  c gray40",
"4  c #676767",
"5  c #686868",
"6  c DimGray",
"7  c #6A6A6A",
"8  c gray42",
"9  c #6C6C6C",
"0  c #6D6D6D",
"q  c gray43",
"w  c #6F6F6F",
"e  c gray44",
"r  c #717171",
"t  c #727272",
"y  c gray45",
"u  c #747474",
"i  c gray46",
"p  c #767676",
"a  c #777777",
"s  c gray47",
"d  c #797979",
"f  c gray48",
"g  c #7B7B7B",
"h  c #7C7C7C",
"j  c gray49",
"k  c #7E7E7E",
"l  c gray50",
"z  c #808080",
"x  c #818181",
"c  c gray51",
"v  c #838383",
"b  c #848484",
"n  c gray52",
"m  c #868686",
"M  c gray53",
"N  c #888888",
"B  c #898989",
"V  c gray54",
"C  c #8B8B8B",
"Z  c gray55",
"A  c #8D8D8D",
"S  c #8E8E8E",
"D  c gray56",
"F  c #909090",
"G  c gray57",
"H  c #929292",
"J  c #939393",
"K  c gray58",
"L  c #959595",
"P  c gray59",
"I  c #979797",
"U  c #989898",
"Y  c gray60",
"T  c #9A9A9A",
"R  c #9B9B9B",
"E  c gray61",
"W  c #9D9D9D",
"Q  c gray62",
"!  c #9F9F9F",
"~  c #A0A0A0",
"^  c gray63",
"/  c #A2A2A2",
"(  c gray64",
")  c #A4A4A4",
"_  c #A5A5A5",
"`  c gray65",
"'  c #A7A7A7",
"]  c gray66",
"[  c #A9A9A9",
"{  c #AAAAAA",
"}  c #ACACAC",
"|  c gray68",
" . c #AEAEAE",
".. c #AFAFAF",
/* pixels */
"h c 6 3 J b h b h h g i h c h i q g c 6 3 J b h h h g i i h g g i q h c q * D V h c g g g i i g g i q h h r * b J h h h h g i g ",
"b b 6 6 K b g i g V b r i b V i g c b 6 3 J V g h c b c i g b D g i b c q < K J g g h V b i g J V h i h c g < D D i i c V c g g ",
"V h < 6 K V g i h c h h h c c g D V c < 3 J V i r i h h g g h c h V V c 6 < K D r r i h h i g h b h V V c q # D J g i h c h g g ",
"c i * 3 J V h h c i g g h g i h V b g < < D V g h c h c h h c h h D c g 3 # D b c c h h h h h g g g D V g 3 # D V h h g g g g g ",
"g i 3 6 D b b b b h c g g h h c h g i 6 6 D D b b V h h h i h h i h i g 6 < D V b b c c h g g h g i h g r q < D J V V b h b h i ",
"q r 6 q c i i i r 6 r 6 3 6 < 3 6 6 q q 6 g g g q i 6 q q 6 6 6 6 q 6 i q 6 c h r r q q r r 6 q q 6 6 q r r 3 h g r i r q q 6 6 ",
"# < * # 3 # * # * # * # # * O * # # * < O * O # < * O < # O 3 # * * # < * # < # < < * # < # O * O < # * * * # < # # < * # * * * ",
"b J D b V b D D c V V 6 q J K J D V D J b V b D J c c V r q J D K J V V D D V c V D V b b r q J J K V V D D V b V D J V b b i 3 ",
"V Y Y D b V V V V D V 6 c ` J K V V K Q J b b D b c D D q h  .D Y J D J Q K b c V D b V D q g ` Y Y D V J Q K b b V b V D D r r ",
"h h h h h g g g g g r O i Y g h c g h h g g h c c g g q O r Y g h h g g c h c c h c h i i O q K i g h h g c h g h c h h g i < 6 ",
"c h g g h h h c g c i # i D 6 g V c h h g h h h g g c r # r J q c b c g g i g h g g h c g # 6 D i h b b g i i i h c h h c g < 6 ",
"g h h c b b h g h J h * g D r c h g h h h c b b g c J c * g K r i c h g h c h c h h c D b < r J i g h c h c c c c c i h V c < 6 ",
"g c b V b b c g h V i O g J r g h i c V V b b c g g b g O i K g g h g h b D V b c g g c h # 6 K i g g g h V V V b b g h V c * q ",
"i i g h g i i i r h i * h K g i c r i h h g i r g r h r < h K h h g r r g c g i i i r g h * r Y i h h r i i h g i h r i i i < q ",
"* < < 3 3 < < * * 3 3 # 3 r < 3 6 < * < < 3 3 3 < # 3 < # 6 r < 3 < < < 3 < < 3 * * < 3 q # 3 i 3 3 3 3 < < < < < 3 < * < 3 O 6 ",
"q r 6 * < q r 6 r q r q 6 6 3 r 6 q q 3 < 3 q q 6 q r q q 6 q 6 6 q q 6 6 < < 6 r q 6 q r 6 q 3 q 3 6 6 6 3 < < q q 6 6 q i 6 6 ",
"Q / h 6 / / K J K K J K Y D K Y K / / c 6 / ` Y D J Y K K Y Y K Y K Q / b < Y ` Y J J K K K K J J Y K Q ` V 3 J  .Y K K Y K J Q ",
"c b q * K J c c g c g r g h c r r c b r * K D c g c h i i h h h g i h b g # D D c h h c g i g g h g q g V i # D D h h h h g r g ",
"c c 6 3 Y b g i g b h i g b V g r g h 6 < Y V i h c c h g h b b r i g h r < D V h g h b c g c b b h i h c r * D D g g c c c g g ",
"D h 6 3 K c i g g c c g g h b h D V c 6 < K V i g h c h g h c c h V D c q < J D i r g c h i h b h c b D c q * J J i i h h b h i ",
"b r * < K c h h h g g g g i i g D V i < * J c g i g h g g i g g h b V g < * D V g g i h h i r g i c V V i 3 # V V g h h i g g g ",
"h r 6 6 K V b V b c h h h c h g h h r 6 3 J b b b b b c g g g h g g g r 6 6 V D V b b c b h g h h h c h i q 3 D J b b b c c h g ",
"r r q 6 b g g g i q q 6 6 r 6 6 q q q 6 6 b g h i r q q 6 q q 6 q q 6 r q 6 c h i i i q r q q q q 6 6 6 6 i 6 h g q r i i r 6 6 ",
"# * * O 3 O * # * O * # # # O * * # 3 * O 6 O * < * # * * * * # # # # 3 * O * # # < < O # # # # # # # < * 3 O < * * < < # # # < ",
"D D V V c V D V V b V < q Y D J V b D V b c b V D V b b 6 6 Y V K D b D D b c b V V V c V q 6 D D J D V V D D b V b D b c V r < ",
"b K Y J b V V c V b V q c [ K / D D K K J D V V b V D D r c  .Y Y J V J Y J V b D V D b V q i [ Y K D V J K D b V V V V V J g r ",
"g h c h g g h c g g r O i K i h c h h c h h h h g g g r * r Q h g h c h b h h h h h c g r * q J g h h h h c h g c c h h g i # 6 ",
"b h g h h h b h g c i O g J q h c h g g i i g c c h h g # r K 6 g c c h i i g c h i h h g * q D r h c c i g g i h h g h g i # q ",
"g g c h h b c i g D h # h J r c c h h c b b c b g c J b * g Y r c b c g c b c c V i c J V * q K i h b c c c c c b c g c D b 3 r ",
"h h b V b V b c h V g # i J r g i i g c b b c c i g b g # r K i g g i g b D b c c i g b h # q J i i g i h c V b V h g h b c * 3 ",
"g g g c g r r r i h r * c Y h h c g g g h g i r h g g i 3 h K g i h i i h h g i r r r g g < i K g h g i r i h h g g i i g g < q ",
"< * < 3 3 3 6 < < 3 6 # 3 i < q 3 * * 3 6 6 3 3 * # 6 6 # 6 h < 6 6 < < 3 3 < 6 < < < 3 q O < g < q 6 < < < 3 * 3 < < * < q # 3 ",
"q r 3 X 6 3 q 6 3 r 6 6 6 < < 3 6 < 6 q O 6 3 q q 6 q 6 6 3 * q 6 < 6 q 6 # 3 3 6 6 q r 6 3 q < < 6 q q q q O 6 6 3 6 6 q q 3 6 ",
"Q Y c r Q / Y D J Y J K K J K J K Q Q V r Y Q Q K J Y K Y Y J K J K Q Q b q K ` Y K D J J J K J K K Y K Y D 6 D [ Y K J J K K Y ",
"b V 6 * Y K b c h c g i c c c i g b b 6 O J K b h g h g g h c h g h b V q * V Y b c g c h g h c b g i h V i # V J h h h h h g g ",
"g c q < K b i g h c h g h b b g r c c q < K D i h h b h i h b b i r h c q 3 D V g g c b h i h b c i i h c i * J D g g h b c i i ",
"V h 6 6 Y c i i h h h h h c b h b V h q 3 J V r i g c c g g c h c b D b 6 3 J V r r h c h g g V c h b D h r * D D i r g h h h h ",
"V i * < K V c g g g g g i h g g D b i < # D V g g g g h g h h g c D V h < * J J h g h g h g i h g c D b i 6 * D D g i g g h i g ",
"g r 3 3 J b b b b h c h g h c h c h r 6 < J D b V b g h h h c c i c g r 6 * D V V b c h h h i g i h c g r q * D J c b V c c h g ",
"q i q 3 V g g i g 6 r q 6 r 6 6 6 q q r 6 V g i i g r r r 6 6 r q r q i i 3 b h i i g r i i 6 r q 6 6 q i i * V c r g g q r r 6 ",
"# < # # * < * * # O # # # * X # # # * * * # O * * * # * < # # # O # * * * * * * * * * X * # * # # # # # < * * < # * * < O * O < ",
"c V D c c c b D c b V 3 q J D J V b V V V b c D V c c c 3 q J D J V b b V b c c V V b c b 6 6 V D J J b b b c h c V c c c b q 3 ",
"V Y Y J D D D J V D D 3 i  .K Q D J K J J D b D V V D D r h  .K Q K J K Q J V V D D D V J q i [ Y / K J K Q Y J V D V V V J i r ",
"h c c g g h h i g i r O g Y i c c h c c h h g c g h g r 3 g Y h i i g c c g g g h h h g i * r K i g g i h c h i c h g h g i * q ",
"b c g i i c b h h h i # g D q h b c g g g g g h h c h q # i J q c b c h g g h c h g c c r X q D r g b b c g i i g g h c h i # 6 ",
"h h h c c h h g c D c * i D g h b c g c c h c c g g K V * i K q c b c g g h h g c g g J V # r K i g c b h h h b c c h h V D 3 6 ",
"h h b D V b c h i V h # i J g i i g g b V V b c g i b c # i Q g i g i g b D b c c g i b c * r D g g g i g b V V b c h g c b * 6 ",
"h i g h g i i g g g r # g J i g h h i h h i g r h h i r 3 i K i h c g i h h g g r g g i r # g J i h h g i g c i g r i g h i O g ",
"3 < 6 6 r < 6 < * r 6 * q i 6 q 6 3 < q 6 6 3 q * < 6 6 * q g 6 q 3 6 * 6 3 q < 6 < * 6 6 < 3 g 6 r 6 < < 6 < 6 6 6 < * 6 r 3 3 ",
"3 6 < O 3 < 6 3 3 6 3 3 6 3 * 3 3 3 3 * O 3 3 6 3 6 6 q < 3 6 < 3 3 6 6 < X < 3 q 6 6 q 6 3 < 6 < < < 6 6 3 O 3 3 3 6 3 6 6 < 3 ",
"Q Y h q Q / Q J K K J K K D J Y J Q Y c i K / Q J D J J J J K K K K Y / V q J / J J J K K K J J Y K J Q Y b q V ` Y J J K K D K ",
"c V r * J J b h h c g g c c c g g b D q * D K b c c c h g g c c c h h V r # V J c c c c h g h h b h i c V r * V K V c h c h g c ",
"h b q 3 K b g h g b g r h c c i r g c q < J D g g h b c r g b b q i g b q * J D h g h c h g g b c i q i b i < D D g g h b c i g ",
"V c < < K V i r h V h g c h h c b c c 6 3 J V i r g b h i h b c g b V b q * K D r r g c h g g b h b b V b r # D D i r g b b g i ",
"b i * 3 K b h g g g h g g h h c J V h < < D b c g h h g g g i r c D V h < * D D g g g h g i i i g c D D h 6 # K V g g g g h i h ",
"h r 3 6 K V V b b h h g g c h i c h i * 3 K V b b b h c c h g c g c h i < < D V b b c c c b c h h g h h i 3 # D K c V b c h g g ",
"6 g r q b c g g g g i q q i r 6 r 6 g q q V c g g h g r i i q r 3 i q g r 6 b b c i g q r r r q r r q 6 g r 6 b c g i g i g q q ",
"# 3 # O < * * * * O # O O # O * * # < O O * * * < # # * # # * # * # O * * O 3 * * * < O < # # * O * * O * * O < # * < * X # O # ",
"h V b c c h c V h h c 3 r b c D b h V V c h h b V g g h 6 6 V b J c h V b h c i b c c g b 6 6 V b D D c c V c h h b b h h c q 6 ",
"J Y K Y V D D D J J J 3 c  .Q Q J D Y Q K D D K D V J J i c [ Q Q J J K Y J D D K D V D J r g [ Q Y K J K Y K b J J D D J K i r ",
"h h h c r h h g g g r # i K g g c g h h g h h h g g g i < i Y g h h h c c g g c g g g g g * 6 J g h h h c c b g h c h h g i < 6 ",
"h g h h i c c h g h i # g D 6 g b c h g i h c h h c c q # r J q c h c c h g i c c g h b g # 6 D r g c b h g h g c b h h h r * q ",
"c g b c h b h i c D c # g J r c c h h h h c c h i g D h < i K i h b h h h h h h c i g D V * r Y r h h c h g h h g h i g V c 3 q ",
"i i D b D V b g i D h # g J r g g i h b V V V b c g D h # g K i g h g h V V D b b g g V b * q K i c i i c b D b V D g g b V 3 3 "
};
