/* XPM */
static char *c1320dce240f463890dd6f11fe367d88[] = {
/* columns rows colors chars-per-pixel */
"64 64 190 2 ",
"   c #5D4317",
".  c #5B451D",
"X  c #684817",
"o  c #62451E",
"O  c #644A1E",
"+  c #6A481A",
"@  c #704E1E",
"#  c #5F4D29",
"$  c #634621",
"%  c #634B24",
"&  c #694D25",
"*  c #644E2B",
"=  c #6B4F2A",
"-  c #675122",
";  c #6B5225",
":  c #67512A",
">  c #6C542B",
",  c #6F582D",
"<  c #735324",
"1  c #795727",
"2  c #765D25",
"3  c #71542D",
"4  c #735B2E",
"5  c #785B2E",
"6  c #664E32",
"7  c #675232",
"8  c #6D5632",
"9  c #6E5932",
"0  c #6F573B",
"q  c #6E5B38",
"w  c #735631",
"e  c #785734",
"r  c #745C33",
"t  c #7A5D34",
"y  c #745E3A",
"u  c #7B5D39",
"i  c #77602F",
"p  c #7B622A",
"a  c #7D682F",
"s  c #776234",
"d  c #7B6235",
"f  c #7E6836",
"g  c #76623B",
"h  c #7C643B",
"j  c #7E693D",
"k  c #766440",
"l  c #7B6542",
"z  c #7D6A44",
"x  c #7E6B4A",
"c  c #805D27",
"v  c #815F36",
"b  c #805F3B",
"n  c #84612C",
"m  c #89662E",
"M  c #88682F",
"N  c #826436",
"B  c #866B34",
"V  c #8C6C35",
"C  c #82653B",
"Z  c #836A3D",
"A  c #8A6C3E",
"S  c #906D33",
"D  c #936E3A",
"F  c #8C7135",
"G  c #87703E",
"H  c #8E733D",
"J  c #94733D",
"K  c #99743E",
"L  c #95793B",
"P  c #9B7B3E",
"I  c #856441",
"U  c #896642",
"Y  c #836C42",
"T  c #8B6D43",
"R  c #836E4A",
"E  c #926F49",
"W  c #867143",
"Q  c #8C7244",
"!  c #8F7845",
"~  c #85724B",
"^  c #8C734A",
"/  c #8F7A4A",
"(  c #927445",
")  c #9A7643",
"_  c #957B45",
"`  c #9B7B45",
"'  c #93754B",
"]  c #99764E",
"[  c #947A4C",
"{  c #9B7C4C",
"}  c #877551",
"|  c #8D7551",
" . c #8A7852",
".. c #9A7751",
"X. c #957B52",
"o. c #9B7D53",
"O. c #947C5A",
"+. c #9F7F58",
"@. c #A27E45",
"#. c #A17E4B",
"$. c #A37E51",
"%. c #948147",
"&. c #9E8244",
"*. c #96824C",
"=. c #9D834C",
"-. c #9E8A4F",
";. c #968252",
":. c #9C8253",
">. c #9E8954",
",. c #9D835A",
"<. c #9F885D",
"1. c #A38245",
"2. c #AA8745",
"3. c #AC8947",
"4. c #A4844C",
"5. c #AA854D",
"6. c #A58A4C",
"7. c #AB8A4D",
"8. c #B18C4E",
"9. c #B6914D",
"0. c #A38454",
"q. c #AA8652",
"w. c #A48A53",
"e. c #AC8C54",
"r. c #A2845A",
"t. c #A9855A",
"y. c #A58B5A",
"u. c #AB8C5B",
"i. c #B18C56",
"p. c #B28E5A",
"a. c #A49053",
"s. c #AD9255",
"d. c #A7905D",
"f. c #AE925B",
"g. c #B29355",
"h. c #B89556",
"j. c #BF9A56",
"k. c #B3935C",
"l. c #B9955D",
"z. c #B4995B",
"x. c #BA9A5E",
"c. c #A88660",
"v. c #A48B61",
"b. c #AB8D62",
"n. c #B28D60",
"m. c #A79064",
"M. c #AD9262",
"N. c #AF9865",
"B. c #AD9468",
"V. c #B39463",
"C. c #BA9562",
"Z. c #B59A64",
"A. c #BC9B64",
"S. c #B69768",
"D. c #BB9769",
"F. c #B59A6A",
"G. c #BB9D6B",
"H. c #BC9F70",
"J. c #B6A067",
"K. c #BDA164",
"L. c #BDA26C",
"P. c #BEA171",
"I. c #C09B57",
"U. c #C29D5E",
"Y. c #C09763",
"T. c #C19C65",
"R. c #C19E6B",
"E. c #C39F70",
"W. c #C3A266",
"Q. c #C3A26C",
"!. c #CAA46C",
"~. c #C5A86B",
"^. c #CBA96E",
"/. c #C4A473",
"(. c #CBA672",
"). c #C5AA74",
"_. c #CCAB74",
"`. c #C6A778",
"'. c #C4A879",
"]. c #CBAB7A",
"[. c #D2AE79",
"{. c #CEB077",
"}. c #CEB579",
"|. c #D2B277",
" X c #D2B17D",
".X c #DBB67F",
"XX c #CDB181",
"oX c #D4B380",
"OX c #D5B688",
"+X c #D9BA8A",
/* pixels */
"h h z l r l R ~ R ~ x x 7 6 ~ l g g g y l ~ h y R h ~ R R R 0 * R z k l k g l l k k I ^ ^ ~ R | 0 % k ~ g k k l l x y g z ~  .z ",
"d C B C [ *.N A Q Z e o u X.Z ^ ( ( Q f Z f N { Q Z Y T N & & ' C ' ' ' Z N T j A ' ' N N D t + & T Q Y { [ h d B Z d ( ( N Z [ ",
"` ) e.k.G.(.C.g.R.l.p.#.$.C.e.T.T.D.5.J ` l.l.(.l.l.D.W.V.#.#.k.l.l.C.T.e.K { l.C.R.W.k.T.!.l.u.) i.i.i.C.Y.p.D K i.l.R.(.C.l.T.",
"#.) l.G.C.T.k.e.l.i.q.D.D.i.i.i.q.i.q.) q.R.T.D.G.4.k.k.1.k.R.u.e.q.q.p.q.K 4.T.C.A.A.7.k.k.4.k.T.D.i.i.q.i.l.` 4.R.R.D.T.i.e.C.",
"Z.y.d.M.F.J.;.[ { [ 5 r.E.v.V.V.F.F.D.N.u.b.V.Q.f._ *.:.i Q F.N.u.Z.V.V.V.M.M.f.B.F.F.%._ *.Z Z G.H.u.s.F.F.f.F.y.V.M.F.F.:.( w.",
"d r r 4 > , r h d r & 3 y w r d r r d r > 4 , ; ; i d r - ; r 3 s h 4 r C t 4 > 9 ; , i i s : : > ; 3 t s s s r 3 s > ; r r 4 d ",
"u.y.S.b.t 5 0.n.w.0.v.r.,.b.y.0.{ y.S.u.u.M.Q & { C.f.y.M.u.0.t.y.r.[ r.V.y.y.V.T 5 Q u.f.M.b.c.y.y.M.M.[ { S.r.u.N.[ t C y.S.b.",
"p.p.t.p.i.u.D.Y.e.k.5.( u.Q.e.e.q.u.f.u.u.f.e.u.x.A.i.k.e.D #.(.f.k.e.e.i.e.e.k.n.q.C.Q.e.e.i.] ( W.k.e.i.w.k.i.e.V.k.q.k.G.D.e.",
"g.k.e.Z.}.K.6.a.4.5.q.5.l.Q.k.e.5.x.k.h.g.z._.~.g.a.&.4.s.w.6.K.h.7.s.z.g.e.k.h._. Xk.e.i.w.i.i.7.A.x.g.7.k.k.g.e.f.Q.}.Z.6.a.%.",
"T ] ( E ^ h j T I ^ X.^ T T I T T ' A A ( A ( E t C Z T [ ' ( Q ' T A T ( T ( ( T T t u N h E ^ A ) T C N ( ( T ( E T E Z h W Y ",
"b I C e 3 r h t g s y g s % % R u I C I U u 3 = d t t t r t r ; o u C b b I I u 9 9 y h g s g g C w $ b I C I I I I 3 & w t d w ",
"V.C.).P.f.k.N.w.d.w.>.w.y.! [ L.`./.S.M.H.].H.n.K.w.w.f.4.w.u.w.C n././.F.V.G.'.f.f.Z.d.d.y.w.w.n.{ T V.`.H.G.M.C.].R.k.G.V.0.e.",
"L F s.K.A.~.g.6.x.x.i.e.s.4.1.e.Z.z.-.V %.Z.Z.K.z.&.s.~.k.6.a.6.4.w.f.Z.w.F ` Q.L.W.T.7.h.A.g.i.w.a.4.w.f.Z.z.B L A.A.K.W.e.7.W.",
"w.! w.6.b.E.u.4.R.C.5.q.k.C.C.l.Z.F.V.*.4.y.u.P.f.w.f.J.e.w.f.z.S.S.V.G.N.{ *.y.i.A.p.0.C.Q.i.$.M.D.F.Z.V.A.P.>.H e.w.f.G.e.u._.",
"Y h h 4 u U b u A I N t 3 3 N b h T Z C C t > C C t h Z N r 3 ; t h Z Z Z B C 3 w C C e t T N t > ; t h h d T Z h h 3 u T b t b ",
"~ O.X.' $.b.t.../ r.m.v.:.:.v.X.o.r.[ ^ [ [ [ b.b.o.' ,.B.b.r.o.y.:.[ ,.[ ^ o.[ ^ y.M.<.[ X.v.B.r.:.y.r.:.:.:.^  .;.| ,.b.r.o...",
"T.q.V e.!.p.i.5.5.7.i.x.l.x.W.l.5.Q.~.l.V K R.R.8.2.2.2.5.h.h.l.Y.T.i.p.(.Q.J n j.j.9.3.3.2.7.h.U.l.T.U.i.g.W.T.4.c k.(.e.e.1.4.",
"/.u.*.u.M.M.F.C.G.F.G.A.A 4.+XZ.u.'.'.F.[ :.M.e.u.V.Q.L.G.L.t.T  X/.u./.XXG.o.>.k.V.k.S.J.F.L.P.V.B S.+Xn.S.OXE.t.{ u.d.M.V.V./.",
"Y h ~ Y s j ^ / ^ [ [ ^ > > ^ Q j W z j j W j g X.~ X./ O.O.y = G Q h j Y h h ^ g C Y ~ O.O.^  .l * l | R l ~ R j ~ Z h j W ^ / ",
"r s Z r Z ^ i f Q s ;   s Q 4 Q W Z s 1 f h f ( z d I g w % . ~ i T Q Z d s r d Z T T h h h > & $ Y Y u ^ ^ r t r Z h Q W d Z Z ",
"#.{ u.e.K._.k.k.R.V.u.( { D.p.V.D.V.w.) w.i.p.`.l.e.A.Q.k.1.` p.l.p.C.R.i.( { V.g.T.W.k.k.K.k.s.J i.k.i.A.G.k.` ] t.p.R.Q.k.A.A.",
"#.) p.D.A.R.p.i.i.l.i.C.p.q.p.e.i.e.q.) q.D.C.D.W.2.9.k.7.k.D.5.q.q.e.i.w.H #.G.h.U.W.7.7.x.s.q.h.e.e.7.2.7.7.@.) C.k.C.Q.i.q.k.",
"D.t.V.S.V.S.t.` :.[ d y.`.V.S.M.n.V.D.u.u.M.A.S.u.,.r.{ d ( H.S.f.Z.S.M.F.M.M.M.G.G.A.0.X.:.A C P.S.M.S.F.V.V.B.u.S.S.S.S.u.{ w.",
"8 r * % , , > r y r . % 8 : , g g w y r > % , r 8 6 8 l 7 * 0 6 > 5 y r g 9 % % 7 7 8 : q k * * 7 > 7 8 y y y y r $ : , * , 3 r ",
"t.0.u.0.1 < =.k.p.{ q.#.{ u.u.#.( e.0.0.0.u.J X T i.u.0.u.{ #.0.u.0.( #.u.0.0.i.' + N p.t.t.r.#.0.0.0.u.{ ) V.q.0.u.=.@ < q.u.u.",
"k.C.k.k.e.e.A.G.u.k.e.J z.A.e.k.s.k.s.A.k.f.e.6.G.W.A.k.k.J 4.~.k.A.f.e.k.k.k.k.f.e.k.Q.A.k.f.4.P Q.A.u.e.e.k.k.k.k.k.e.k.Q.G.e.",
"f.k.w.Z.{.L.f.e.=.w.w.{ V.G.f.w.w.Z.k.N.s.N.L._.f.w.4.w.f.=.s.P.u.a.e.f.V.s.f.f.K.).Z.f.w.4.u.w._ A.A.s.w.e.Z.a.k.f.G.).L.f.s.4.",
"Q ' ' [ [ T h Y Q Z ,.:.[ [ X.T T o.^ Q ' [ ,.' h T Q Y [ X.X.T o.^ T [ X.^ ^ ' [ ' Y A Y T [ X.X.X.' X.T ^ ,.^ ^ T ' X.T h T Q ",
"h Y Q r ; t h C t 3 d t t O & Z h B d C T t > O C t h 5 t t h 5 o d Z j d C Z d d & d h 5 t 5 t d r   ; T Z h h T T t > 4 d r 5 ",
"k.f.).L.s.A.k.w.f.s.w.w.s.J _ K.G.L.A.f.G.).Q.Z.Z.4.w.e.a.4.w.w.B e.L./.Z.f.K.).K.w.K.f.-.f.-.w.w.4.V -.L./.A.s.f.L.K.k.V.z.0.w.",
"J F k.R.Z.G.7.e.G.g.e.e.e.` 4.e.k.l.4.m 1.Q.T.l.z.4.z.G.A.e.e.1.4.w.i.A.e.S ` Q.A.K.K.5.5.K.k.z.e.4.{ e.e.k.k.J H k.D.K.G.e.w.K.",
"V.{ e.t.G.].p.u./.G.n.u.P.E./.G.(.E.E.$.q.t.p.`.D.y.R./.V.0.D./.G.Q.D./.E.0.{ u.u./.A.e.G./.k.0.D./.Q.R.R.H./.u.` e.q.G./.q.p.].",
"z z z r 9 Y h r W h I y # , j d z W h Y Y y : Y Z g g Y h y 9 & h h h ~ h g z z > h Y d y j z r , * u z h I z j x l 8 q R h y W ",
"Z ( ! Q 0.y.{ ` H { :.o.[ [ { _ Q ' Q ( A Q _ :.y.( H { r.:.[ ' { 0.( [ ( [ ! Q Q { :.[ ( [ >.t.' ) { ' ( ` ( V ^ Q [ o.=.0.[ A ",
"G.e.J q.Q.C.q.q.1.V.C.R.D.D._.G.i.R.~.p.D @.G.T.h.e.4.5.k.A.D.R.Q.!.i.l.(.A.( V G.A.C.e.q.4.e.C.E.C.(.!.i.C.(.T.q.J u.R.C.p.q.4.",
"].0.( u.C.k.C.l.G.C.G.D.( 4._.A.e.]. XD.) { D.k.u.A.G.D.R.G.4.( (.(.u.A.oXL.{ ) C.k.k.k.A.A.R.~.n.D S.oXu.k. X~.0._ q.S.V.p.C.T.",
"Z h W Z d Z ( Q [ ! [ T * r _ W d Z Z Z C N Z s Q [ [ [ ;.[ 4 % T Q N h T h j W s Z Z G ! / ! ! Z & h ;.Z Z ! Z h j Y d N Q Q ' ",
"y j Y d h Q Z j f s > # w Y d Z ^ h r r Y h h W Z r s s > % % W j j Q T y , j h s Q G d Z Z 4 O % z h s Y j 4 , j j h Z Q Z Z Z ",
"0.{ r.y.G.'.n.k.L.C.:.( y.G.M.A.D.D.u.[ q.y.V.'.G.M.P./.t.( ' S.C.V.R.H.M.[ 0.y.f.Q.A.u.S.L.k.0.A V.V.M.P.P.f.:.[ y.u.G.].u.u.Q.",
"J V k.A.l.!.i.q.h.q.T.Y.q.e.5.2.5.i.5.n 4.R.l.l.l.5.i.i.l.R.l.u.5.5.5.5.q.B ) Q.h.W.T.7.7.h.k.h.l.u.q.4.1.e.i.S m G.A.h.T.i.8.h.",
"C.A.k.V.G.A.q.4.>.%.a w.).N.F.Z.k.A.D.k.k.C.D.G.N.*.;.>.f ^ P.F.z.F.A.J.D.k.Z.k.C.L.K.=.` w.H B Q.S.z.A.G.R.l.G.l.e.k.Q.G.u.` e.",
"h 8 , 9 r u u 8 y 8 % w r > C u Y h y r r r r y 5 5 f t & > C > u h t u I u e w z : 8 g g y : : u w r I e u N u r t u w w r r g ",
",.,.v.,.3 , X.m.y.<.,.[ r.r.r.o.Q r.v.:.,.v.Y . [ y.y.0.0.{ o.o.o.<.X.X.r.r.r.y.~ ; h v.c.<.,.:.' $.r.c.' o.v.r.r.r.X.> y :.v.<.",
"k.i.g.h.1.5.A.~.s.z.7.L z.W.i.g.4.s.z.g.k.x.i.@.A.K.k.k.k.=.w.Q.s.s.6.e.z.s.g.x.8.5.g.W.x.g.g.5.` K.x.g.5.e.g.z.l.g.g.4.7.K.W.k.",
"g.5.7.k.~.Q.g.4.1.6.s.P h.K.7.e.s.g.g.e.4.g.W.|.s.k.6.4.e.` w.Q.s.a.6.s.z.6.e.e.W.!.G.8.2.4.7.7.%.x.z.a.6.s.a.k.7.7.W._.K.s.6.2.",
"X.<.<.,.,.[ Y Q X.^ c.<.r.o...] [ ,.<.o.X.,.,.X.A ^ ( [ o.r.r.o.,.[ ' o.r.o.+.+.,.:.^ Y ^ / [ v.r.o.o.,.' ,.r.[ r.[ ,.,.^ T W ~ ",
"y u y w > 3 y u g 9 y r u $ > h j r , u I y 8 > 4 4 5 5 t h h % = g u u u e C N 9 * r g u g 9 g h w o r h u g w I h e = > y y y ",
"A.k.A.D.e.k.k.{ *.a.=.-.N.B H L.k.A.S.C.A.A.V.0.J.a.;.y.:.;.v.:.2 w.K.G.Z.C.D.G.Z.w.z.s.{ 6.:.=.w.4.p -.L.Z.Z.Z.C.R.A.u.p.k.4.4.",
"J V R.T.A.^.i.q.T.l.e.q.5.4.4.5.T.Y.q.n 1.].C.!.l.5.l.T.u.q.q.4.@.5.C.C.l.c ) ].C.!.Y.5.l.T.p.p.w.q.4.{ u.Q.k.F m ^.W.A.~.8.8.U.",
"M.( 0.u.Z.Q.e.i.`.D.s.N.S.D.G.A.G.S.F.:.[ u.S.`.C.e.Q.`.s.d.Z.L.R.S.D.H.H.0.o.>.p.L.G.u.D.`.C.u.S.S.G.P.G.G.G.y.{ w.w.F.G.e.k.Q.",
"G G h i f ^ B s Q W d i , i Z Z Q ^ G Z j 4 s Z G i Z G j d i , Z Z B W Z j W j 3 G Q f f Q Z f s r h T Q W Q G T h s h Q Z f Q ",
"W / Q ! -.d.y.` _ a.y.y.>.*.y.:.( >./ [ *.! *.r.u._ _ *.>.m.>.[ { =.*.;.! [ [ / _ =.w._ ! { >.w.r.{ { :.*.{ ) ( [ ! ;.*.y.y.( [ ",
"J.&.F e.K.k.q.5.` e.e.x.s.k.^.k.q.T.R.s.V J R.T.e.5.5.4.7.Z.z.k.Q.T.e.A.Q.V.J n K.C.C.e.4.e.e.i.Q.e.R.(.i.p.Q.x.w.B u.R.f.e.4.#.",
"/.e.) i.l.i.l.A.T.l.Q.T.K 4.[.W.i.].].k.` #.C.i.h.x.T.G.W.G.q.J (.!.q.A.[.Q.#.` k.i.l.k.l.T.T.(.i.D C. Xi.l..X!.0.) e.k.k.C.Y.R.",
"C T Z d f A T ) [ ( { Q ; 3 Q Q d ( T h Q T v C ( ( ) ..{ ~ 3 % T ( B C Z Y Y T N C ( T ( ' ( ' h : C [ C C Q d N ( Z i A Q J { ",
"q l g k R R h h z h * % g Y l Y | g q y g k z R h l z y 8 : > x u R R R q 0 x y z Y Y u l R r % * l l l } R q g l y g ~ Q h h j ",
"` J e.k.A./.k.i.T.i.q.K 4.T.g.l.T.A.6.J 4.k.g._.A.s.A.A.k.@.K A.k.x.z.A.z.L P s.i.E.!.i.U.R.g.5.V z.z.e.x.A.g.` P q.7.R.^.i.i.W.",
"` A k.G.k.G.C.6.z.S.V.f.k.w.6.e.=.u.4.J 6.A.Z.C.Z.w.f.z.w.k.k.e.e.e.4.e.e.L ` z.k.A.C.e.i.l.w.f.k.f.s.e.4.a.k.J L A.G.x.x.i.i.g.",
"H.b.b.M.F.F.<.' *.^ f >.F.M.F.B.V.F.G.M.b.V.S.H.m.%.*.[ s ! F.N.f.D.V.S.S.u.u.S.N.F.N.>.>.;.W f /.V.u.V.S.A.S.S.u.S.S.S.G.u.4.r.",
"w w = = w w w s y w $ , 8 % r 9 u r r 8 = % * 3 , : y d % % e = > u w e u w 3 & y * > 8 8 9 > # 3 3 3 3 u t r u & & = & 3 3 & r ",
"y.0.M.<.3 < :.m.t.t.t.#.$.t.t.t.o.r.y.y.v.y.A O ^ u.t.0.0.{ q.$.y.0.o.0.t.y.0.u.E < N u.u.r.r.<.{ u.u.t.` [ y.0.>.d.*.< 5 y.N.r.",
"f.a.s.g.6.6.K.K.i.p.5.P k.(.g.5.6.f.f.s.s.s.s.4.z.^.h.8.h.P @.^.g.a.2.7.g.s.z.k.g.5.l.Q.A.s.s.1.&.A.x.a.6.6.l.g.z.z.s.&.6.K.K.s.",
"k.i.e.z.[.!.e.e.4.i.u.4.f.D.l.e.t.k.k.i.f.e.K. Xs.s.=.7.k.1.&.K.k.s.e.s.k.f.g.s.G.~.A.e.4.w.w.-.&.G.z.e.f.k.k.l.s.e.G.{.Q.f.6.4.",
"' ' ' { ] T N I Y ' X.O./ / ' Y T $.' ' ' ..o.^ s W W Z ^ <.X.Q o.T I X...T ' ..X.X.g Z ^ Y Q <...' ..' T ' ..U X.' ..] T I T T "
};
